<?xml version="1.0" encoding="UTF-8"?>
<svg width="300px" height="170px" viewBox="0 0 300 170" version="1.1" xmlns="http://www.w3.org/2000/svg" xmlns:xlink="http://www.w3.org/1999/xlink">
    <title>Fauzan Arif</title>
    <g id="Fauzan-Arif" stroke="none" stroke-width="1" fill="none" fill-rule="evenodd">
        <g id="Group-2" fill="#000000">
            <rect id="Rectangle-Copy" transform="translate(163.899495, 159.899495) rotate(-315.000000) translate(-163.899495, -159.899495) " x="156.899495" y="152.899495" width="14" height="14"></rect>
            <path d="M30.6,139 L32.28,123.52 L41.16,120.76 L43.08,139 L73.08,139 L59.76,55 L13.92,55 L0.6,139 L30.6,139 Z M32.88,118.48 L36.24,86.92 L36.48,79.6 L37.2,79.6 L37.44,86.92 L40.56,116.08 L32.88,118.48 Z M107.28,139 L107.28,97.96 L108,97.96 L108,101.8 C108,123.88 116.52,139 143.52,139 L143.52,107.8 C121.404,104.5408 116.337108,101.2816 113.424501,98.2414415 L113.246956,98.0536718 C113.21778,98.022424 113.1888,97.9912 113.16,97.96 C137.64,97.6 142.56,88.6 142.56,74.8 C142.56,57.88 137.4,55 112.32,55 L77.28,55 L77.28,139 L107.28,139 Z M108.84,93.16 L107.28,93.16 L107.28,73.96 C116.04,74.08 116.16,75.04 116.16,79.72 C116.16,84.88 116.04,93.16 108.84,93.16 Z M179.52,139 L179.52,55 L149.52,55 L149.52,139 L179.52,139 Z M216.72,139 L216.72,104.8 L234.24,99.88 L233.52,95.08 L216.72,99.76 L216.72,83.08 L241.92,85 L241.92,55 L186.72,55 L186.72,139 L216.72,139 Z" id="ARIF" fill-rule="nonzero"></path>
            <path d="M92.58,43 L92.58,25.615 L101.486,23.114 L101.12,20.674 L92.58,23.053 L92.58,14.574 L105.39,15.55 L105.39,0.3 L77.33,0.3 L77.33,43 L92.58,43 Z M116.630944,44.098 C123.584944,44.098 126.512944,38.73 126.512944,33.362 L126.817944,33.362 L126.817944,43 L141.457944,43 L141.457944,18.173 C141.457944,12.683 136.760944,10.06 126.756944,10.06 L110.286944,10.06 L110.286944,24.09 C115.593944,22.382 121.144944,20.918 124.255944,20.918 C125.841944,20.918 126.817944,21.284 126.817944,22.138 L126.817944,22.504 C126.817944,25.92 108.151944,24.517 108.151944,35.985 C108.151944,42.024 111.811944,44.098 116.630944,44.098 Z M122.913944,33.118 C122.181944,33.118 121.693944,32.447 121.693944,31.471 C121.693944,29.6016452 123.598211,28.2083569 125.48712,26.8432232 L125.939181,26.5159023 C126.239047,26.297743 126.53459,26.0793871 126.817944,25.859 L126.817944,29.458 C125.353944,32.142 123.889944,33.118 122.913944,33.118 Z M154.406889,44.098 C158.737889,44.098 163.800889,41.841 166.057889,38.059 L167.094889,43 L181.124889,43 L181.124889,10.06 L165.874889,11.28 L165.874889,33.789 C165.874889,35.375 164.898889,36.29 163.922889,36.29 C163.068889,36.29 162.214889,35.619 162.214889,32.752 L162.214889,10.06 L146.964889,11.28 L146.964889,37.815 C146.964889,42.207 150.380889,44.098 154.406889,44.098 Z M217.070833,43 L217.070833,28.055 L193.219833,30.251 L216.460833,21.711 L216.460833,10.06 L187.912833,10.06 L187.912833,24.09 L210.055833,22.26 L186.631833,30.861 L186.631833,43 L217.070833,43 Z M230.446778,44.098 C237.400778,44.098 240.328778,38.73 240.328778,33.362 L240.633778,33.362 L240.633778,43 L255.273778,43 L255.273778,18.173 C255.273778,12.683 250.576778,10.06 240.572778,10.06 L224.102778,10.06 L224.102778,24.09 C229.409778,22.382 234.960778,20.918 238.071778,20.918 C239.657778,20.918 240.633778,21.284 240.633778,22.138 L240.633778,22.504 C240.633778,25.92 221.967778,24.517 221.967778,35.985 C221.967778,42.024 225.627778,44.098 230.446778,44.098 Z M236.729778,33.118 C235.997778,33.118 235.509778,32.447 235.509778,31.471 C235.509778,29.7511935 237.121549,28.4343299 238.850303,27.1716252 L239.302954,26.8432232 C239.756292,26.5155911 240.208746,26.1895806 240.633778,25.859 L240.633778,29.458 C239.169778,32.142 237.705778,33.118 236.729778,33.118 Z M276.030722,43 L276.030722,19.271 C276.030722,17.685 277.006722,16.77 277.982722,16.77 C278.836722,16.77 279.690722,17.441 279.690722,20.308 L279.690722,43 L294.940722,43 L294.940722,15.245 C294.940722,10.853 291.524722,8.962 287.498722,8.962 C283.167722,8.962 278.104722,11.219 275.847722,15.001 L274.810722,10.06 L260.780722,11.89 L260.780722,43 L276.030722,43 Z" id="Fauzan" fill-rule="nonzero"></path>
        </g>
    </g>
</svg>