<?xml version="1.0" encoding="UTF-8"?>
<svg width="300px" height="170px" viewBox="0 0 300 170" version="1.1" xmlns="http://www.w3.org/2000/svg" xmlns:xlink="http://www.w3.org/1999/xlink">
    <title>Fauzan Arif</title>
    <g id="Fauzan-Arif" stroke="none" stroke-width="1" fill="none" fill-rule="evenodd">
        <g id="Group-2" fill="#000000">
            <rect id="Rectangle-Copy" transform="translate(163.899495, 159.899495) rotate(-315.000000) translate(-163.899495, -159.899495) " x="156.899495" y="152.899495" width="14" height="14"></rect>
        </g>
        <g id="Group-3" fill="#000000">
            <path d="M30.6,139 L32.28,123.52 L41.16,120.76 L43.08,139 L73.08,139 L59.76,55 L13.92,55 L0.6,139 L30.6,139 Z M32.88,118.48 L36.24,86.92 L36.48,79.6 L37.2,79.6 L37.44,86.92 L40.56,116.08 L32.88,118.48 Z M107.28,139 L107.28,97.96 L108,97.96 L108,101.8 C108,123.88 116.52,139 143.52,139 L143.52,107.8 C121.404,104.5408 116.337108,101.2816 113.424501,98.2414415 L113.246956,98.0536718 C113.21778,98.022424 113.1888,97.9912 113.16,97.96 C137.64,97.6 142.56,88.6 142.56,74.8 C142.56,57.88 137.4,55 112.32,55 L77.28,55 L77.28,139 L107.28,139 Z M108.84,93.16 L107.28,93.16 L107.28,73.96 C116.04,74.08 116.16,75.04 116.16,79.72 C116.16,84.88 116.04,93.16 108.84,93.16 Z M179.52,139 L179.52,55 L149.52,55 L149.52,139 L179.52,139 Z M216.72,139 L216.72,104.8 L234.24,99.88 L233.52,95.08 L216.72,99.76 L216.72,83.08 L241.92,85 L241.92,55 L186.72,55 L186.72,139 L216.72,139 Z" id="ARIF" fill-rule="nonzero"></path>
        </g>
        <g id="Group-4" fill="#000000">
            <path d="M101.703,43 L101.703,18.844 L103.96,18.539 L103.96,16.099 L93.529,17.38 C92.187,17.563 91.394,16.953 91.394,16.221 C91.394,15.367 92.37,14.391 94.566,14.025 L103.228,12.683 L103.228,0.3 C85.05,0.483 83.22,5.851 83.22,9.816 C83.22,14.33 85.599,16.892 89.686,17.868 L86.453,18.234 L86.453,18.295 L83.83,18.6 L83.83,21.04 L86.453,20.735 L86.453,43 L101.703,43 Z M116.725944,44.098 C123.679944,44.098 126.607944,38.73 126.607944,33.362 L126.912944,33.362 L126.912944,43 L141.552944,43 L141.552944,18.173 C141.552944,12.683 136.855944,10.06 126.851944,10.06 L110.381944,10.06 L110.381944,24.09 C115.688944,22.382 121.239944,20.918 124.350944,20.918 C125.936944,20.918 126.912944,21.284 126.912944,22.138 L126.912944,22.504 C126.912944,25.92 108.246944,24.517 108.246944,35.985 C108.246944,42.024 111.906944,44.098 116.725944,44.098 Z M123.008944,33.118 C122.276944,33.118 121.788944,32.447 121.788944,31.471 C121.788944,29.6016452 123.693211,28.2083569 125.58212,26.8432232 L126.034181,26.5159023 C126.334047,26.297743 126.62959,26.0793871 126.912944,25.859 L126.912944,29.458 C125.448944,32.142 123.984944,33.118 123.008944,33.118 Z M154.501889,44.098 C158.832889,44.098 163.895889,41.841 166.152889,38.059 L167.189889,43 L181.219889,43 L181.219889,10.06 L165.969889,11.28 L165.969889,33.789 C165.969889,35.375 164.993889,36.29 164.017889,36.29 C163.163889,36.29 162.309889,35.619 162.309889,32.752 L162.309889,10.06 L147.059889,11.28 L147.059889,37.815 C147.059889,42.207 150.475889,44.098 154.501889,44.098 Z M217.165833,43 L217.165833,28.055 L193.314833,30.251 L216.555833,21.711 L216.555833,10.06 L188.007833,10.06 L188.007833,24.09 L210.150833,22.26 L186.726833,30.861 L186.726833,43 L217.165833,43 Z M230.541778,44.098 C237.495778,44.098 240.423778,38.73 240.423778,33.362 L240.728778,33.362 L240.728778,43 L255.368778,43 L255.368778,18.173 C255.368778,12.683 250.671778,10.06 240.667778,10.06 L224.197778,10.06 L224.197778,24.09 C229.504778,22.382 235.055778,20.918 238.166778,20.918 C239.752778,20.918 240.728778,21.284 240.728778,22.138 L240.728778,22.504 C240.728778,25.92 222.062778,24.517 222.062778,35.985 C222.062778,42.024 225.722778,44.098 230.541778,44.098 Z M236.824778,33.118 C236.092778,33.118 235.604778,32.447 235.604778,31.471 C235.604778,29.7511935 237.216549,28.4343299 238.945303,27.1716252 L239.397954,26.8432232 C239.851292,26.5155911 240.303746,26.1895806 240.728778,25.859 L240.728778,29.458 C239.264778,32.142 237.800778,33.118 236.824778,33.118 Z M276.125722,43 L276.125722,19.271 C276.125722,17.685 277.101722,16.77 278.077722,16.77 C278.931722,16.77 279.785722,17.441 279.785722,20.308 L279.785722,43 L295.035722,43 L295.035722,15.245 C295.035722,10.853 291.619722,8.962 287.593722,8.962 C283.262722,8.962 278.199722,11.219 275.942722,15.001 L274.905722,10.06 L260.875722,11.89 L260.875722,43 L276.125722,43 Z" id="fauzan" fill-rule="nonzero"></path>
        </g>
    </g>
</svg>